# xmcd
#
# Track frame offsets: 
#        150
#        15457
#        27425
#        38126
#        51497
#        64284
#        78853
#        96042
#        110343
#        121231
#        134428
#        146199
#
# Disc length: 2107 seconds
#
# Revision: 1
# Processed by: cddbd v1.5.1PL0 Copyright (c) Steve Scherf et al.
# Submitted via: ExactAudioCopy v0.90b4
#
DISCID=a408390c
DTITLE=BR549 - Tangled In The Pines
DYEAR=2004
DGENRE=Country
TTITLE0=That's What I Get
TTITLE1=I'm All Right (For The Shape I'm In)
TTITLE2=Ain't Got Time
TTITLE3=She's Talking To Someone (She's Not Talking To Me)
TTITLE4=Tangled In The Pines
TTITLE5=No Train To Memphis
TTITLE6=Movin' The Country
TTITLE7=Run A Mile
TTITLE8=When I Come Home
TTITLE9=No Friend Of Mine
TTITLE10=Honky Tonkin' Lifestyle
TTITLE11=Way Too Late (To Go Home Early Now)
EXTD=
EXTT0=
EXTT1=
EXTT2=
EXTT3=
EXTT4=
EXTT5=
EXTT6=
EXTT7=
EXTT8=
EXTT9=
EXTT10=
EXTT11=
PLAYORDER=
